<svg width="96" height="96" xmlns="http://www.w3.org/2000/svg" xmlns:xlink="http://www.w3.org/1999/xlink" xml:space="preserve" overflow="hidden"><defs><clipPath id="clip0"><rect x="838" y="144" width="96" height="96"/></clipPath></defs><g clip-path="url(#clip0)" transform="translate(-838 -144)"><path d="M868.5 182 926.1 171.8 923.3 156 844.6 170 847.2 184.7 847.4 224C847.4 226.2 849.2 228 851.4 228L923.4 228C925.6 228 927.4 226.2 927.4 224L927.4 182 868.5 182ZM913.4 161.8 920.1 160.6 920.3 161.8 914.8 169.6 907 171.1 913.4 161.8ZM897.2 164.7 905.1 163.3 898.6 172.6 890.7 174 897.2 164.7ZM880.9 167.6 888.8 166.2 882.3 175.5 874.4 176.9 880.9 167.6ZM864.7 170.5 872.6 169.1 866.1 178.4 858.2 179.8 864.7 170.5ZM856.3 172 850.5 180.3 849.2 173.2 856.3 172ZM911.4 207 863.4 207 863.4 195 911.4 195 911.4 207Z"/></g></svg>